<svg width="76" height="76" viewBox="0 0 76 76" fill="none" xmlns="http://www.w3.org/2000/svg">
<path d="M17.8269 1H58.1902C67.4726 1 74.9975 8.52491 74.9975 17.8073V58.1707C74.9975 67.4531 67.4726 74.978 58.1902 74.978H17.8269C8.54444 74.978 1.01953 67.4531 1.01953 58.1707V17.8073C1.01953 8.52491 8.54444 1 17.8269 1Z" stroke="black" stroke-width="2"/>
<path d="M54.8403 64.6069H63.5273C63.8421 64.6069 64.144 64.4818 64.3666 64.2593C64.5893 64.0367 64.7144 63.7348 64.7145 63.42L64.7189 45.066C64.7189 35.4729 62.6518 28.0991 51.4412 28.0991C47.1796 27.9407 43.1607 30.1375 40.9921 33.8058C40.9815 33.8236 40.9654 33.8375 40.9461 33.8453C40.9269 33.8531 40.9057 33.8543 40.8857 33.8489C40.8657 33.8435 40.848 33.8317 40.8353 33.8153C40.8226 33.7989 40.8157 33.7787 40.8155 33.758V30.1719C40.8155 29.8571 40.6904 29.5551 40.4678 29.3325C40.2452 29.1098 39.9432 28.9848 39.6284 28.9848H31.3844C31.0696 28.9848 30.7676 29.1098 30.545 29.3325C30.3224 29.5551 30.1973 29.8571 30.1973 30.1719V63.4182C30.1973 63.7331 30.3224 64.035 30.545 64.2577C30.7676 64.4803 31.0696 64.6054 31.3844 64.6054H40.0709C40.3857 64.6054 40.6877 64.4803 40.9103 64.2577C41.133 64.035 41.258 63.7331 41.258 63.4182V46.9841C41.258 42.3373 42.1395 37.8371 47.9005 37.8371C53.5795 37.8371 53.6531 43.1544 53.6531 47.2851V63.4197C53.6531 63.7346 53.7782 64.0365 54.0008 64.2592C54.2235 64.4818 54.5254 64.6069 54.8403 64.6069ZM11.2969 17.697C11.2969 21.2184 14.1956 24.1156 17.717 24.1156C21.2375 24.1153 24.1345 21.2163 24.1345 17.6958C24.1339 14.1753 21.2366 11.2783 17.7158 11.2783C14.1941 11.2783 11.2969 14.1759 11.2969 17.697ZM13.3622 64.6069H22.0602C22.3751 64.6069 22.677 64.4818 22.8997 64.2592C23.1223 64.0365 23.2474 63.7346 23.2474 63.4197V30.1719C23.2474 29.8571 23.1223 29.5551 22.8997 29.3325C22.677 29.1098 22.3751 28.9848 22.0602 28.9848H13.3622C13.0474 28.9848 12.7454 29.1098 12.5228 29.3325C12.3001 29.5551 12.1751 29.8571 12.1751 30.1719V63.4197C12.1751 63.7346 12.3001 64.0365 12.5228 64.2592C12.7454 64.4818 13.0474 64.6069 13.3622 64.6069Z" fill="black"/>
</svg>
