<svg width="138" height="68" viewBox="0 0 138 68" fill="none" xmlns="http://www.w3.org/2000/svg">
<path d="M18.9929 25.6103C17.1022 26.7275 15.0396 27.3291 12.8051 27.3291C10.4847 27.3291 8.33623 26.7275 6.3596 25.5244C4.38297 24.3212 2.83604 22.6024 1.71881 20.5398C0.601584 18.3913 0 16.1568 0 13.6646C0 11.1723 0.601584 8.85188 1.71881 6.7893C2.83604 4.64079 4.38297 3.00791 6.3596 1.80475C8.33623 0.601576 10.4847 0 12.8051 0C14.7818 0 16.6725 0.429695 18.3913 1.37504C20.1101 2.32039 21.5711 3.60951 22.7743 5.15644L19.2507 7.56276C18.4772 6.44554 17.5319 5.67207 16.4146 4.98455C15.2974 4.38296 14.0943 4.03921 12.8051 4.03921C11.2582 4.03921 9.88317 4.46891 8.59406 5.32832C7.30495 6.18772 6.27366 7.39088 5.50019 8.85187C4.72673 10.3129 4.38296 11.9457 4.38296 13.6646C4.38296 15.3834 4.72673 17.0162 5.50019 18.4772C6.27366 19.9382 7.30495 21.1414 8.59406 22.0008C9.88317 22.8602 11.2582 23.2899 12.8051 23.2899C14.2661 23.2899 15.6412 22.8602 16.9303 22.0008C18.2194 21.1414 19.2507 20.0242 19.9382 18.6491L23.4618 21.0555C22.4305 22.9461 20.8836 24.4931 18.9929 25.6103Z" fill="white"/>
<path d="M38.8442 24.7506C37.4692 26.3834 35.7504 27.1569 33.7737 27.1569C32.1409 27.1569 30.6799 26.7272 29.3908 25.9537C28.1017 25.1803 27.0704 24.0631 26.3829 22.688C25.6094 21.313 25.2656 19.6801 25.2656 17.9613C25.2656 16.2425 25.6094 14.6096 26.3829 13.2345C27.1563 11.8595 28.1017 10.7423 29.3908 9.96879C30.6799 9.19532 32.1409 8.76562 33.7737 8.76562C35.7504 8.76562 37.4692 9.53909 38.8442 11.172V11.086C38.8442 10.4844 39.0161 9.96879 39.4458 9.53909C39.8755 9.10938 40.3912 8.9375 40.9927 8.9375H43.1413V26.8991H38.8442V24.7506ZM37.4692 13.8361C36.5239 12.8048 35.4926 12.2032 34.2034 12.2032C32.9143 12.2032 31.7971 12.7189 30.8518 13.8361C29.9924 14.8674 29.4767 16.2425 29.4767 17.9613C29.4767 19.6801 29.9064 21.0551 30.8518 22.0864C31.7112 23.1177 32.8284 23.7193 34.2034 23.7193C35.4926 23.7193 36.6098 23.2036 37.4692 22.0864C38.4145 20.9692 38.8442 19.5941 38.8442 17.9613C38.8442 16.2425 38.3286 14.8674 37.4692 13.8361Z" fill="white"/>
<path d="M46.1485 14.1798C46.1485 13.3204 46.4063 12.461 46.836 11.6016C47.2657 10.7422 47.8673 10.1406 48.7267 9.62493C49.5861 9.10929 50.5315 8.85146 51.5627 8.85146C53.1956 8.76552 54.4847 8.93741 55.4301 9.19523C56.3754 9.45305 57.5786 9.96869 58.8677 10.6562L57.1489 13.836C56.4614 13.4063 55.6879 12.9766 54.8285 12.6329C53.9691 12.2891 53.1097 12.2031 52.3362 12.2031C52.1643 12.2031 51.9065 12.2031 51.5627 12.2891C51.133 12.375 50.7893 12.6329 50.6174 12.8907C50.4455 13.1485 50.2736 13.4923 50.2736 13.922C50.2736 14.2657 50.3596 14.6095 50.6174 14.9532C50.8752 15.2111 51.4768 15.4689 52.3362 15.8127C52.594 15.8986 53.2815 16.1564 54.3988 16.5002C55.516 16.9299 56.5473 17.3596 57.2348 17.9612C58.0083 18.5628 58.5239 19.1643 58.7817 19.9378C59.0396 20.5394 59.1255 21.2269 59.1255 21.7425C59.1255 22.6879 58.8677 23.6332 58.352 24.4067C57.8364 25.2661 57.0629 25.9536 56.0316 26.3834C55.0004 26.899 53.7112 27.1568 52.2503 27.1568C50.0158 27.1568 47.6095 26.2974 45.0312 24.6645L47.0079 21.7425C48.0392 22.3441 48.8986 22.8598 49.758 23.2036C50.6174 23.5473 51.3909 23.7192 52.2503 23.7192C52.5081 23.7192 52.7659 23.7192 52.9378 23.6333C53.5394 23.5473 54.055 23.3754 54.4847 23.0317C54.9144 22.6879 55.0004 22.1723 54.9144 21.4847C54.8285 20.8832 54.141 20.3675 53.1097 20.0237L51.4768 19.4222C50.1877 18.9925 49.1564 18.5627 48.3829 18.133C47.6095 17.7033 47.0079 17.1018 46.6641 16.2424C46.3204 15.5548 46.1485 14.8673 46.1485 14.1798Z" fill="white"/>
<path d="M66.1721 13.8361C65.3127 14.8674 64.797 16.2425 64.797 17.9613C64.797 19.6801 65.2267 21.0551 66.1721 22.0864C67.0315 23.1177 68.1487 23.7193 69.5238 23.7193C70.3832 23.7193 71.2426 23.5474 71.9301 23.1177C72.7036 22.688 73.3052 22.0864 73.8208 21.227L76.9147 23.2896C76.0553 24.4928 75.024 25.4381 73.7348 26.1256C72.4457 26.8132 70.9848 27.1569 69.5238 27.1569C67.8909 27.1569 66.344 26.7272 64.9689 25.9538C63.5939 25.1803 62.4766 24.0631 61.7032 22.6021C60.9297 21.227 60.5 19.5941 60.5 17.8753V17.7894C60.5 16.0706 60.9297 14.5236 61.7032 13.1486C62.4766 11.7735 63.5939 10.6563 64.9689 9.88286C66.344 9.1094 67.8909 8.67969 69.5238 8.67969C71.0707 8.67969 72.4457 9.02345 73.7348 9.71097C75.024 10.3985 76.0553 11.3438 76.9147 12.547L73.8208 14.6096C73.3052 13.7502 72.6176 13.1486 71.9301 12.7189C71.1566 12.2892 70.3832 12.1173 69.5238 12.1173C68.1487 12.2033 67.0315 12.7189 66.1721 13.8361Z" fill="white"/>
<path d="M91.5279 24.7506C90.1528 26.3834 88.434 27.1569 86.4574 27.1569C84.8245 27.1569 83.3635 26.7272 82.0744 25.9537C80.7853 25.1803 79.754 24.0631 79.0665 22.688C78.293 21.313 77.9492 19.6801 77.9492 17.9613C77.9492 16.2425 78.293 14.6096 79.0665 13.2345C79.8399 11.8595 80.7853 10.7423 82.0744 9.96879C83.3635 9.19532 84.8245 8.76562 86.4574 8.76562C88.434 8.76562 90.1528 9.53909 91.5279 11.172V11.086C91.5279 10.4844 91.6997 9.96879 92.1294 9.53909C92.5591 9.10938 93.0748 8.9375 93.6764 8.9375H95.8249V26.8991H91.5279V24.7506ZM90.1528 13.8361C89.2074 12.8048 88.1762 12.2032 86.8871 12.2032C85.598 12.2032 84.4807 12.7189 83.5354 13.8361C82.676 14.8674 82.1603 16.2425 82.1603 17.9613C82.1603 19.6801 82.59 21.0551 83.5354 22.0864C84.3948 23.1177 85.512 23.7193 86.8871 23.7193C88.1762 23.7193 89.2934 23.2036 90.1528 22.0864C91.0981 20.9692 91.5279 19.5941 91.5279 17.9613C91.5279 16.2425 91.0981 14.8674 90.1528 13.8361Z" fill="white"/>
<path d="M112.754 24.7509C111.379 26.3838 109.661 27.1572 107.684 27.1572C106.051 27.1572 104.59 26.7275 103.301 25.9541C102.012 25.1806 100.981 24.0634 100.293 22.6883C99.5195 21.3133 99.1758 19.6804 99.1758 17.9616C99.1758 16.2428 99.5195 14.6099 100.293 13.2348C101.066 11.8598 102.012 10.7426 103.301 9.9691C104.59 9.19563 106.051 8.76593 107.684 8.76593C109.661 8.76593 111.379 9.5394 112.754 11.1723V2.49227C112.754 1.89068 112.926 1.37503 113.356 0.945332C113.786 0.515629 114.301 0.34375 114.903 0.34375H117.051V26.8994H112.754V24.7509ZM111.379 13.8364C110.434 12.8051 109.403 12.2036 108.114 12.2036C106.824 12.2036 105.707 12.7192 104.762 13.8364C103.903 14.8677 103.387 16.2428 103.387 17.9616C103.387 19.6804 103.817 21.0554 104.762 22.0867C105.621 23.118 106.739 23.7196 108.114 23.7196C109.403 23.7196 110.52 23.204 111.379 22.0867C112.325 20.9695 112.754 19.5944 112.754 17.9616C112.754 16.2428 112.325 14.8677 111.379 13.8364Z" fill="white"/>
<path d="M137.075 19.3363H124.785C125.043 20.6254 125.559 21.7427 126.418 22.5161C127.278 23.2896 128.223 23.7193 129.34 23.7193C130.2 23.7193 131.059 23.5474 131.746 23.1177C132.52 22.688 133.122 22.0864 133.637 21.227L136.645 23.2896C135.872 24.4928 134.84 25.4381 133.551 26.1256C132.262 26.8132 130.801 27.1569 129.34 27.1569C127.707 27.1569 126.16 26.7272 124.785 25.9537C123.41 25.1803 122.293 24.0631 121.52 22.688C120.746 21.313 120.316 19.6801 120.316 17.9613C120.316 16.2425 120.746 14.6955 121.52 13.2345C122.293 11.8595 123.324 10.7423 124.699 9.96879C125.988 9.19532 127.535 8.76562 129.168 8.76562C130.801 8.76562 132.176 9.19532 133.465 9.96879C134.668 10.7423 135.614 11.8595 136.301 13.2345C136.989 14.6096 137.247 16.1565 137.247 17.9613C137.161 18.5629 137.161 18.9926 137.075 19.3363ZM131.832 13.4064C131.145 12.6329 130.2 12.2032 129.168 12.2032C128.051 12.2032 127.192 12.6329 126.418 13.4064C125.645 14.1799 125.129 15.2112 124.871 16.5003H133.122C132.95 15.2112 132.52 14.1799 131.832 13.4064Z" fill="white"/>
<path d="M18.9929 56.5488C17.1022 57.666 15.0396 58.2676 12.8051 58.2676C10.4847 58.2676 8.33623 57.666 6.3596 56.4628C4.38297 55.2597 2.83604 53.5409 1.71881 51.4783C0.601584 49.3298 0 47.0953 0 44.603C0 42.1108 0.601584 39.7904 1.71881 37.7278C2.83604 35.5793 4.38297 33.9464 6.3596 32.7432C8.33623 31.5401 10.4847 30.9385 12.8051 30.9385C14.7818 30.9385 16.6725 31.3682 18.3913 32.3135C20.1101 33.2589 21.5711 34.548 22.7743 36.0949L19.2507 38.5012C18.4772 37.384 17.5319 36.6105 16.4146 35.923C15.2974 35.3214 14.0943 34.9777 12.8051 34.9777C11.2582 34.9777 9.88317 35.4074 8.59406 36.2668C7.30495 37.1262 6.27366 38.3294 5.50019 39.7903C4.72673 41.2513 4.38296 42.8842 4.38296 44.603C4.38296 46.3218 4.72673 47.9547 5.50019 49.4157C6.27366 50.8767 7.30495 52.0799 8.59406 52.9393C9.88317 53.7987 11.2582 54.2284 12.8051 54.2284C14.2661 54.2284 15.6412 53.7987 16.9303 52.9393C18.2194 52.0799 19.2507 50.9626 19.9382 49.5876L23.4618 51.9939C22.4305 53.8846 20.8836 55.4315 18.9929 56.5488Z" fill="white"/>
<path d="M26.6406 57.8379V33.4307C26.6406 32.8292 26.8125 32.3135 27.2422 31.8838C27.6719 31.4541 28.1876 31.2822 28.7891 31.2822H31.0236V57.8379H26.6406Z" fill="white"/>
<path d="M47.5239 55.6891C46.1489 57.3219 44.4301 58.0954 42.4534 58.0954C40.8206 58.0954 39.3596 57.6657 38.0705 56.8922C36.7813 56.1188 35.7501 55.0015 35.0625 53.6265C34.2891 52.2514 33.9453 50.6186 33.9453 48.8998C33.9453 47.1809 34.2891 45.5481 35.0625 44.173C35.836 42.798 36.7813 41.6808 38.0705 40.9073C39.3596 40.1338 40.8206 39.7041 42.4534 39.7041C44.4301 39.7041 46.1489 40.4776 47.5239 42.1105V42.0245C47.5239 41.4229 47.6958 40.9073 48.1255 40.4776C48.5552 40.0479 49.0708 39.876 49.6724 39.876H51.8209V57.8376H47.5239V55.6891ZM46.1489 44.7746C45.2035 43.7433 44.1722 43.1417 42.8831 43.1417C41.594 43.1417 40.4768 43.6574 39.5315 44.7746C38.672 45.8059 38.1564 47.1809 38.1564 48.8998C38.1564 50.6186 38.5861 51.9936 39.5315 53.0249C40.3909 54.0562 41.5081 54.6578 42.8831 54.6578C44.1722 54.6578 45.2895 54.1421 46.1489 53.0249C47.0942 51.9077 47.5239 50.5326 47.5239 48.8998C47.5239 47.2669 47.0942 45.8059 46.1489 44.7746Z" fill="white"/>
<path d="M62.7385 40.3916C63.5979 39.9619 64.6292 39.7041 65.7464 39.7041H66.6059V44.3449C66.348 44.0871 66.0043 43.9152 65.5746 43.8293C65.1448 43.7433 64.7151 43.6574 64.1995 43.6574C63.1682 43.6574 62.3088 44.0871 61.6213 44.9465C60.9338 45.8059 60.59 47.0091 60.59 48.6419V57.9235H56.207V39.9619H58.3555C58.9571 39.9619 59.4728 40.1338 59.9025 40.5635C60.3322 40.9932 60.5041 41.5089 60.5041 42.1105V42.1964C61.1056 41.337 61.8791 40.8213 62.7385 40.3916Z" fill="white"/>
<path d="M73.4806 35.4933C72.965 36.009 72.3634 36.2668 71.6759 36.2668C70.9883 36.2668 70.3868 36.009 69.8711 35.4933C69.3555 34.9777 69.0977 34.3761 69.0977 33.6886C69.0977 32.9151 69.3555 32.3135 69.8711 31.8838C70.3868 31.3682 70.9883 31.1104 71.6759 31.1104C72.4493 31.1104 73.0509 31.3682 73.4806 31.8838C73.9963 32.3995 74.2541 33.001 74.2541 33.6886C74.2541 34.3761 73.9963 34.9777 73.4806 35.4933ZM70.129 40.5638C70.5587 40.1341 71.0743 39.9622 71.6759 39.9622H73.8244V57.9238H69.5274V42.0248C69.4414 41.5092 69.6993 40.9935 70.129 40.5638Z" fill="white"/>
<path d="M87.2309 39.8763C87.6606 39.8763 88.0903 40.0482 88.434 40.3919C88.7778 40.7357 88.9497 41.1654 88.9497 41.5951V42.8842H83.3635V50.6189C83.3635 51.908 83.4495 52.8533 83.6213 53.283C83.9651 53.9706 84.5667 54.3143 85.4261 54.3143C86.0277 54.3143 86.7152 54.1424 87.4027 53.7987L88.52 57.0644C87.1449 57.666 85.7699 57.9238 84.3948 57.9238C82.9338 57.9238 81.6447 57.4082 80.6994 56.4628C79.754 55.5175 79.1524 54.1424 79.0665 52.3377C79.0665 52.1658 78.9806 51.908 78.9806 51.4783V42.7983H77.8633C77.4336 42.7983 77.0039 42.6264 76.6602 42.2826C76.3164 41.9389 76.1445 41.5092 76.1445 41.0795V39.7903H78.9806V33.4307C78.9806 32.8292 79.1525 32.3135 79.5822 31.8838C80.0119 31.4541 80.5275 31.2822 81.1291 31.2822H83.3635V39.9622H87.2309V39.8763Z" fill="white"/>
<path d="M93.8478 62.5653C94.965 61.534 95.8244 60.2449 96.5979 58.5261L89.8945 39.9629H92.9025C93.3322 39.9629 93.7619 40.1348 94.1916 40.3926C94.5353 40.6504 94.7931 40.9942 94.965 41.5098L98.7464 53.1977L102.442 41.5098C102.614 41.0801 102.872 40.7364 103.215 40.3926C103.559 40.1348 103.989 39.9629 104.504 39.9629H107.426L100.379 59.4714C99.4339 61.8777 98.3167 63.7684 96.8557 65.1435C95.3947 66.5185 93.9337 67.3779 92.4727 67.8076L90.668 64.7138C91.6133 64.1981 92.7306 63.5106 93.8478 62.5653Z" fill="white"/>
</svg>
