<svg width="392" height="466" viewBox="0 0 392 466" fill="none" xmlns="http://www.w3.org/2000/svg">
<g filter="url(#filter0_d_1556_8028)">
<path d="M321.085 193.907C320.432 196.925 319.943 199.536 319.29 202.228C314.722 222.132 307.461 241.14 298.406 259.331C288.536 279.236 278.012 298.732 267.815 318.474C263.084 327.692 258.352 336.829 255.579 346.862C254.437 351.023 253.784 355.265 254.845 359.751H204.512V357.467C204.431 332.587 204.431 307.706 204.349 282.743C204.349 280.459 204.349 278.175 204.186 275.891C204.104 274.423 204.838 274.015 206.062 273.933C212.262 273.444 217.891 271.649 222.704 267.489C227.435 263.41 230.127 258.271 230.943 252.152C231.759 245.789 231.188 239.508 228.006 233.798C223.846 226.374 217.075 223.03 209.08 221.48C207.612 221.235 206.144 221.072 204.512 220.827C204.512 212.017 204.512 194.315 204.512 194.315H204.838V193.825H231.188C231.759 185.26 234.451 177.428 240.895 171.555C244.974 167.802 250.358 166.253 255.905 166.008C269.692 165.437 283.07 171.31 285.517 193.825H321.085V193.907Z" fill="#607DE6"/>
<path d="M252.888 67.3004C252.888 44.867 252.888 22.5151 252.888 0C254.03 0.0815763 254.927 0.163153 255.743 0.163153C270.345 -0.163153 283.56 4.89458 296.776 10.2786C311.949 16.3968 325.409 24.8808 336.911 36.4646C341.398 40.9513 345.15 46.1722 349.066 51.1483C361.547 67.0557 368.236 85.2472 370.928 105.07C372.805 119.02 371.907 132.888 369.46 146.674C369.378 147.164 368.563 147.979 368.073 147.979C356.571 148.061 344.987 147.979 333.485 147.979C333.403 147.979 333.403 147.898 333.159 147.816C332.995 146.266 332.914 144.472 332.506 142.84C331.527 139.088 330.793 135.172 329.161 131.746C324.185 121.141 314.151 116.083 302.323 117.878C292.941 119.265 286.497 124.404 283.152 133.051C281.521 137.293 280.868 141.943 279.971 146.511C279.726 147.653 279.563 148.143 278.339 148.143C270.345 148.143 262.35 148.143 254.437 148.224C252.969 148.224 252.806 147.571 252.806 146.348C252.806 138.761 252.806 131.175 252.806 123.588C252.806 122.854 252.806 122.12 252.806 121.467C233.309 119.428 226.702 108.089 226.13 96.9126C225.723 89.1629 226.946 81.9026 232.493 75.9475C237.796 70.1556 244.975 68.0346 252.888 67.3004Z" fill="#624AF0"/>
<path d="M89.9786 240.161C98.7073 240.161 107.354 240.161 115.92 240.161C117.307 240.161 117.144 241.059 117.144 241.956C117.144 249.706 117.144 257.374 117.144 265.124C117.144 265.695 117.144 266.184 117.144 266.347C120.978 267.408 124.73 268.06 128.238 269.366C137.701 272.955 143.33 281.357 143.656 291.554C143.819 297.346 143.33 302.975 140.311 308.033C135.498 316.19 127.83 319.535 118.938 320.595C117.062 320.84 116.98 321.493 116.98 322.961C116.98 349.718 116.98 376.557 116.98 403.314C116.98 404.13 116.98 405.027 116.98 406.006C100.42 406.006 84.0236 406.006 67.6267 406.006C69.503 398.093 66.5663 391.077 63.6295 384.143C59.0612 373.538 53.6772 363.341 47.8853 353.389C42.746 344.253 38.0145 334.871 33.2015 325.49C29.2043 317.74 25.2886 309.99 21.6177 302.078C18.7625 295.796 16.56 289.27 13.6232 282.989C9.78916 274.75 6.68926 266.347 4.24197 257.619C2.61044 252.071 1.46837 246.361 0 240.406C0.897339 240.324 1.54995 240.161 2.12098 240.161C12.8891 240.08 23.5755 240.161 34.3436 239.998C36.1383 239.998 36.7909 240.487 36.8725 242.282C37.1988 246.932 38.5856 251.337 40.9513 255.416C44.9485 262.35 51.1483 265.939 58.8981 266.755C67.7899 267.734 76.1107 266.347 82.5552 259.413C86.9603 254.682 88.9182 248.808 89.6523 242.445C89.7339 242.037 89.7339 241.63 89.7339 241.222C89.8155 241.059 89.8971 240.732 89.9786 240.161Z" fill="#5AFECE"/>
<path d="M242.852 406.902C242.363 420.77 236.734 431.702 225.15 439.043C211.608 447.527 197.577 447.446 183.954 439.125C170.657 430.967 165.681 416.12 166.578 406.902C191.867 406.902 217.237 406.902 242.852 406.902Z" fill="#5F5F5F"/>
<path d="M204.591 393.687C220.09 393.687 235.59 393.687 251.089 393.687C253.863 393.687 255.331 395.073 255.331 397.602C255.331 400.131 253.863 401.599 251.089 401.599C220.009 401.599 189.01 401.599 157.929 401.599C154.585 401.599 152.79 398.255 154.503 395.318C155.319 394.013 156.461 393.687 157.929 393.687C173.429 393.687 189.01 393.687 204.591 393.687Z" fill="#5F5F5F"/>
<path d="M204.592 387.161C189.092 387.161 173.593 387.161 158.093 387.161C155.238 387.161 153.852 385.856 153.933 383.245C153.933 380.798 155.401 379.411 158.093 379.411C189.174 379.411 220.173 379.411 251.254 379.411C253.701 379.411 254.925 380.39 255.251 382.674C255.659 385.285 254.109 387.161 251.498 387.161C235.836 387.161 220.173 387.161 204.592 387.161Z" fill="#5F5F5F"/>
<path d="M204.511 365.381C220.174 365.381 235.755 365.381 251.418 365.381C253.865 365.381 255.333 366.768 255.333 369.215C255.333 371.662 253.947 373.131 251.499 373.131C220.256 373.131 189.012 373.131 157.768 373.212C155.647 373.212 154.016 371.744 154.016 369.215C154.016 366.768 155.402 365.462 157.931 365.462C173.349 365.381 188.93 365.381 204.511 365.381Z" fill="#5F5F5F"/>
<path d="M192.681 164.132C196.434 165.681 200.431 166.66 204.755 167.966V194.396H204.428C204.428 194.396 202.878 194.396 202.226 194.396C194.884 194.396 187.46 194.396 180.119 194.315C178.487 194.315 177.998 194.804 177.834 196.436C176.774 205.246 173.511 212.914 165.516 217.727C160.622 220.664 155.238 221.316 149.691 221.316C143.654 221.316 138.351 219.522 133.702 215.769C129.215 212.098 126.686 207.204 125.218 201.738C124.565 199.454 124.32 197.007 123.749 194.315H121.71C111.268 194.315 100.745 194.315 90.3031 194.315C89.0794 194.315 88.1821 194.233 87.9373 192.602C84.1033 171.963 84.4296 151.406 90.8741 131.256C100.663 100.828 119.589 77.7422 147.488 62.1612C161.682 54.2483 176.855 49.5984 193.089 48.13C196.515 47.8037 199.86 47.7222 203.286 47.4774C204.591 47.3959 204.918 47.8853 204.918 49.109C204.836 51.7194 204.918 54.3298 204.918 56.9403C204.918 75.0502 204.918 93.1601 204.918 111.352C204.918 113.065 204.755 113.962 202.552 114.125C196.189 114.778 190.234 116.817 185.421 121.304C181.097 125.383 178.895 130.604 178.405 136.477C177.916 142.514 178.242 148.469 181.342 154.016C183.871 158.911 187.787 162.174 192.681 164.132Z" fill="#5DB6DC"/>
</g>
<defs>
<filter id="filter0_d_1556_8028" x="0" y="0" width="391.934" height="465.386" filterUnits="userSpaceOnUse" color-interpolation-filters="sRGB">
<feFlood flood-opacity="0" result="BackgroundImageFix"/>
<feColorMatrix in="SourceAlpha" type="matrix" values="0 0 0 0 0 0 0 0 0 0 0 0 0 0 0 0 0 0 127 0" result="hardAlpha"/>
<feOffset dx="10" dy="10"/>
<feGaussianBlur stdDeviation="5"/>
<feComposite in2="hardAlpha" operator="out"/>
<feColorMatrix type="matrix" values="0 0 0 0 0 0 0 0 0 0 0 0 0 0 0 0 0 0 0.1 0"/>
<feBlend mode="normal" in2="BackgroundImageFix" result="effect1_dropShadow_1556_8028"/>
<feBlend mode="normal" in="SourceGraphic" in2="effect1_dropShadow_1556_8028" result="shape"/>
</filter>
</defs>
</svg>
