<svg width="34" height="30" viewBox="0 0 34 30" fill="none" xmlns="http://www.w3.org/2000/svg">
<path d="M32.9983 6.94167L29.04 3.89167C28.771 3.71899 28.4786 3.58596 28.1717 3.49667C27.866 3.39774 27.5478 3.34274 27.2267 3.33333H15.8333L17.1683 11.6667H27.2267C27.5 11.6667 27.8417 11.605 28.17 11.5033C28.4983 11.4017 28.815 11.2617 29.0383 11.11L32.9967 8.05667C33.2217 7.905 33.3333 7.70333 33.3333 7.5C33.3333 7.29667 33.2217 7.095 32.9983 6.94167ZM14.1667 0H12.5C12.279 0 12.067 0.0877973 11.9107 0.244078C11.7545 0.400358 11.6667 0.61232 11.6667 0.833333V6.66667H6.10667C5.83 6.66667 5.49 6.72833 5.16167 6.83167C4.83167 6.93167 4.51667 7.07 4.29333 7.225L0.335 10.275C0.11 10.4267 0 10.63 0 10.8333C0 11.035 0.11 11.2367 0.335 11.3917L4.29333 14.445C4.51667 14.5967 4.83167 14.7367 5.16167 14.8367C5.49 14.9383 5.83 15 6.10667 15H11.6667V29.1667C11.6667 29.3877 11.7545 29.5996 11.9107 29.7559C12.067 29.9122 12.279 30 12.5 30H14.1667C14.3877 30 14.5996 29.9122 14.7559 29.7559C14.9122 29.5996 15 29.3877 15 29.1667V0.833333C15 0.61232 14.9122 0.400358 14.7559 0.244078C14.5996 0.0877973 14.3877 0 14.1667 0Z" fill="#0C2239"/>
</svg>
