<svg width="138" height="69" viewBox="0 0 138 69" fill="none" xmlns="http://www.w3.org/2000/svg">
<path d="M18.9929 25.9072C17.1022 27.0244 15.0396 27.626 12.8051 27.626C10.4847 27.626 8.33623 27.0244 6.3596 25.8212C4.38297 24.6181 2.83604 22.8993 1.71881 20.8367C0.601584 18.6882 0 16.4537 0 13.9614C0 11.4691 0.601584 9.14875 1.71881 7.08618C2.83604 4.93766 4.38297 3.30479 6.3596 2.10162C8.33623 0.898451 10.4847 0.296875 12.8051 0.296875C14.7818 0.296875 16.6725 0.72657 18.3913 1.67192C20.1101 2.61726 21.5711 3.90638 22.7743 5.45331L19.2507 7.85964C18.4772 6.74241 17.5319 5.96895 16.4146 5.28142C15.2974 4.67984 14.0943 4.33608 12.8051 4.33608C11.2582 4.33608 9.88317 4.76578 8.59406 5.62519C7.30495 6.4846 6.27366 7.68776 5.50019 9.14875C4.72673 10.6097 4.38296 12.2426 4.38296 13.9614C4.38296 15.6802 4.72673 17.3131 5.50019 18.7741C6.27366 20.2351 7.30495 21.4383 8.59406 22.2977C9.88317 23.1571 11.2582 23.5868 12.8051 23.5868C14.2661 23.5868 15.6412 23.1571 16.9303 22.2977C18.2194 21.4383 19.2507 20.321 19.9382 18.946L23.4618 21.3523C22.4305 23.243 20.8836 24.7899 18.9929 25.9072Z" fill="#222222"/>
<path d="M38.8442 25.0474C37.4692 26.6803 35.7504 27.4538 33.7737 27.4538C32.1409 27.4538 30.6799 27.0241 29.3908 26.2506C28.1017 25.4772 27.0704 24.3599 26.3829 22.9849C25.6094 21.6098 25.2656 19.977 25.2656 18.2581C25.2656 16.5393 25.6094 14.9065 26.3829 13.5314C27.1563 12.1564 28.1017 11.0391 29.3908 10.2657C30.6799 9.4922 32.1409 9.0625 33.7737 9.0625C35.7504 9.0625 37.4692 9.83597 38.8442 11.4688V11.3829C38.8442 10.7813 39.0161 10.2657 39.4458 9.83596C39.8755 9.40626 40.3912 9.23438 40.9927 9.23438H43.1413V27.196H38.8442V25.0474ZM37.4692 14.133C36.5239 13.1017 35.4926 12.5001 34.2034 12.5001C32.9143 12.5001 31.7971 13.0158 30.8518 14.133C29.9924 15.1643 29.4767 16.5393 29.4767 18.2581C29.4767 19.977 29.9064 21.352 30.8518 22.3833C31.7112 23.4146 32.8284 24.0162 34.2034 24.0162C35.4926 24.0162 36.6098 23.5005 37.4692 22.3833C38.4145 21.2661 38.8442 19.891 38.8442 18.2581C38.8442 16.5393 38.3286 15.1643 37.4692 14.133Z" fill="#222222"/>
<path d="M46.1485 14.4767C46.1485 13.6173 46.4063 12.7578 46.836 11.8984C47.2657 11.039 47.8673 10.4374 48.7267 9.92181C49.5861 9.40616 50.5315 9.14833 51.5627 9.14833C53.1956 9.06239 54.4847 9.23428 55.4301 9.4921C56.3754 9.74992 57.5786 10.2656 58.8677 10.9531L57.1489 14.1329C56.4614 13.7032 55.6879 13.2735 54.8285 12.9297C53.9691 12.586 53.1097 12.5 52.3362 12.5C52.1643 12.5 51.9065 12.5 51.5627 12.586C51.133 12.6719 50.7893 12.9297 50.6174 13.1876C50.4455 13.4454 50.2736 13.7891 50.2736 14.2188C50.2736 14.5626 50.3596 14.9064 50.6174 15.2501C50.8752 15.5079 51.4768 15.7658 52.3362 16.1095C52.594 16.1955 53.2815 16.4533 54.3988 16.7971C55.516 17.2268 56.5473 17.6565 57.2348 18.258C58.0083 18.8596 58.5239 19.4612 58.7817 20.2347C59.0396 20.8363 59.1255 21.5238 59.1255 22.0394C59.1255 22.9848 58.8677 23.9301 58.352 24.7036C57.8364 25.563 57.0629 26.2505 56.0316 26.6802C55.0004 27.1959 53.7112 27.4537 52.2503 27.4537C50.0158 27.4537 47.6095 26.5943 45.0312 24.9614L47.0079 22.0394C48.0392 22.641 48.8986 23.1567 49.758 23.5004C50.6174 23.8442 51.3909 24.0161 52.2503 24.0161C52.5081 24.0161 52.7659 24.0161 52.9378 23.9301C53.5394 23.8442 54.055 23.6723 54.4847 23.3285C54.9144 22.9848 55.0004 22.4691 54.9144 21.7816C54.8285 21.18 54.141 20.6644 53.1097 20.3206L51.4768 19.719C50.1877 19.2893 49.1564 18.8596 48.3829 18.4299C47.6095 18.0002 47.0079 17.3986 46.6641 16.5392C46.3204 15.8517 46.1485 15.1642 46.1485 14.4767Z" fill="#222222"/>
<path d="M66.1721 14.133C65.3127 15.1643 64.797 16.5393 64.797 18.2582C64.797 19.977 65.2267 21.352 66.1721 22.3833C67.0315 23.4146 68.1487 24.0162 69.5238 24.0162C70.3832 24.0162 71.2426 23.8443 71.9301 23.4146C72.7036 22.9849 73.3052 22.3833 73.8208 21.5239L76.9147 23.5865C76.0553 24.7896 75.024 25.735 73.7348 26.4225C72.4457 27.11 70.9848 27.4538 69.5238 27.4538C67.8909 27.4538 66.344 27.0241 64.9689 26.2506C63.5939 25.4772 62.4766 24.3599 61.7032 22.8989C60.9297 21.5239 60.5 19.891 60.5 18.1722V18.0863C60.5 16.3675 60.9297 14.8205 61.7032 13.4455C62.4766 12.0704 63.5939 10.9532 64.9689 10.1797C66.344 9.40627 67.8909 8.97656 69.5238 8.97656C71.0707 8.97656 72.4457 9.32032 73.7348 10.0078C75.024 10.6954 76.0553 11.6407 76.9147 12.8439L73.8208 14.9065C73.3052 14.0471 72.6176 13.4455 71.9301 13.0158C71.1566 12.5861 70.3832 12.4142 69.5238 12.4142C68.1487 12.5001 67.0315 13.0158 66.1721 14.133Z" fill="#222222"/>
<path d="M91.5239 25.0474C90.1489 26.6803 88.4301 27.4538 86.4535 27.4538C84.8206 27.4538 83.3596 27.0241 82.0705 26.2506C80.7814 25.4772 79.7501 24.3599 79.0626 22.9849C78.2891 21.6098 77.9453 19.977 77.9453 18.2581C77.9453 16.5393 78.2891 14.9065 79.0626 13.5314C79.836 12.1564 80.7814 11.0391 82.0705 10.2657C83.3596 9.4922 84.8206 9.0625 86.4535 9.0625C88.4301 9.0625 90.1489 9.83597 91.5239 11.4688V11.3829C91.5239 10.7813 91.6958 10.2657 92.1255 9.83596C92.5552 9.40626 93.0709 9.23438 93.6725 9.23438H95.821V27.196H91.5239V25.0474ZM90.1489 14.133C89.2035 13.1017 88.1723 12.5001 86.8832 12.5001C85.594 12.5001 84.4768 13.0158 83.5315 14.133C82.672 15.1643 82.1564 16.5393 82.1564 18.2581C82.1564 19.977 82.5861 21.352 83.5315 22.3833C84.3909 23.4146 85.5081 24.0162 86.8832 24.0162C88.1723 24.0162 89.2895 23.5005 90.1489 22.3833C91.0942 21.2661 91.5239 19.891 91.5239 18.2581C91.5239 16.5393 91.0942 15.1643 90.1489 14.133Z" fill="#222222"/>
<path d="M112.754 25.0478C111.379 26.6806 109.661 27.4541 107.684 27.4541C106.051 27.4541 104.59 27.0244 103.301 26.2509C102.012 25.4775 100.981 24.3602 100.293 22.9852C99.5195 21.6101 99.1758 19.9773 99.1758 18.2585C99.1758 16.5396 99.5195 14.9068 100.293 13.5317C101.066 12.1567 102.012 11.0394 103.301 10.266C104.59 9.49251 106.051 9.06281 107.684 9.06281C109.661 9.06281 111.379 9.83628 112.754 11.4691V2.78914C112.754 2.18756 112.926 1.67191 113.356 1.24221C113.786 0.812504 114.301 0.640625 114.903 0.640625H117.051V27.1963H112.754V25.0478ZM111.379 14.1333C110.434 13.102 109.403 12.5004 108.114 12.5004C106.824 12.5004 105.707 13.0161 104.762 14.1333C103.903 15.1646 103.387 16.5396 103.387 18.2585C103.387 19.9773 103.817 21.3523 104.762 22.3836C105.621 23.4149 106.739 24.0165 108.114 24.0165C109.403 24.0165 110.52 23.5008 111.379 22.3836C112.325 21.2664 112.754 19.8913 112.754 18.2585C112.754 16.5396 112.325 15.1646 111.379 14.1333Z" fill="#222222"/>
<path d="M137.075 19.6332H124.785C125.043 20.9223 125.559 22.0395 126.418 22.813C127.278 23.5865 128.223 24.0162 129.34 24.0162C130.2 24.0162 131.059 23.8443 131.746 23.4146C132.52 22.9849 133.122 22.3833 133.637 21.5239L136.645 23.5865C135.872 24.7896 134.84 25.735 133.551 26.4225C132.262 27.11 130.801 27.4538 129.34 27.4538C127.707 27.4538 126.16 27.0241 124.785 26.2506C123.41 25.4772 122.293 24.3599 121.52 22.9849C120.746 21.6098 120.316 19.977 120.316 18.2581C120.316 16.5393 120.746 14.9924 121.52 13.5314C122.293 12.1564 123.324 11.0391 124.699 10.2657C125.988 9.4922 127.535 9.0625 129.168 9.0625C130.801 9.0625 132.176 9.4922 133.465 10.2657C134.668 11.0391 135.614 12.1564 136.301 13.5314C136.989 14.9065 137.247 16.4534 137.247 18.2581C137.161 18.8597 137.161 19.2894 137.075 19.6332ZM131.832 13.7033C131.145 12.9298 130.2 12.5001 129.168 12.5001C128.051 12.5001 127.192 12.9298 126.418 13.7033C125.645 14.4768 125.129 15.508 124.871 16.7972H133.122C132.95 15.508 132.52 14.4768 131.832 13.7033Z" fill="#222222"/>
<path d="M18.9929 56.8456C17.1022 57.9629 15.0396 58.5645 12.8051 58.5645C10.4847 58.5645 8.33623 57.9629 6.3596 56.7597C4.38297 55.5565 2.83604 53.8377 1.71881 51.7752C0.601584 49.6266 0 47.3922 0 44.8999C0 42.4076 0.601584 40.0872 1.71881 38.0247C2.83604 35.8761 4.38297 34.2433 6.3596 33.0401C8.33623 31.8369 10.4847 31.2354 12.8051 31.2354C14.7818 31.2354 16.6725 31.665 18.3913 32.6104C20.1101 33.5557 21.5711 34.8449 22.7743 36.3918L19.2507 38.7981C18.4772 37.6809 17.5319 36.9074 16.4146 36.2199C15.2974 35.6183 14.0943 35.2746 12.8051 35.2746C11.2582 35.2746 9.88317 35.7043 8.59406 36.5637C7.30495 37.4231 6.27366 38.6262 5.50019 40.0872C4.72673 41.5482 4.38296 43.1811 4.38296 44.8999C4.38296 46.6187 4.72673 48.2516 5.50019 49.7126C6.27366 51.1736 7.30495 52.3767 8.59406 53.2362C9.88317 54.0956 11.2582 54.5253 12.8051 54.5253C14.2661 54.5253 15.6412 54.0956 16.9303 53.2362C18.2194 52.3767 19.2507 51.2595 19.9382 49.8844L23.4618 52.2908C22.4305 54.1815 20.8836 55.7284 18.9929 56.8456Z" fill="#222222"/>
<path d="M26.6406 58.1347V33.7276C26.6406 33.126 26.8125 32.6104 27.2422 32.1807C27.6719 31.751 28.1876 31.5791 28.7891 31.5791H31.0236V58.1347H26.6406Z" fill="#222222"/>
<path d="M47.5239 55.9869C46.1489 57.6198 44.4301 58.3933 42.4534 58.3933C40.8206 58.3933 39.3596 57.9635 38.0705 57.1901C36.7813 56.4166 35.7501 55.2994 35.0625 53.9243C34.2891 52.5493 33.9453 50.9164 33.9453 49.1976C33.9453 47.4788 34.2891 45.8459 35.0625 44.4709C35.836 43.0958 36.7813 41.9786 38.0705 41.2051C39.3596 40.4317 40.8206 40.002 42.4534 40.002C44.4301 40.002 46.1489 40.7754 47.5239 42.4083V42.3224C47.5239 41.7208 47.6958 41.2051 48.1255 40.7754C48.5552 40.3457 49.0708 40.1738 49.6724 40.1738H51.8209V58.1354H47.5239V55.9869ZM46.1489 45.0725C45.2035 44.0412 44.1722 43.4396 42.8831 43.4396C41.594 43.4396 40.4768 43.9552 39.5315 45.0725C38.672 46.1038 38.1564 47.4788 38.1564 49.1976C38.1564 50.9164 38.5861 52.2915 39.5315 53.3227C40.3909 54.354 41.5081 54.9556 42.8831 54.9556C44.1722 54.9556 45.2895 54.44 46.1489 53.3227C47.0942 52.2055 47.5239 50.8305 47.5239 49.1976C47.5239 47.5647 47.0942 46.1038 46.1489 45.0725Z" fill="#222222"/>
<path d="M62.7346 40.6895C63.594 40.2598 64.6253 40.002 65.7425 40.002H66.6019V44.6428C66.3441 44.3849 66.0003 44.2131 65.5706 44.1271C65.1409 44.0412 64.7112 43.9552 64.1956 43.9552C63.1643 43.9552 62.3049 44.3849 61.6174 45.2443C60.9298 46.1037 60.5861 47.3069 60.5861 48.9398V58.2214H56.2031V40.2598H58.3516C58.9532 40.2598 59.4689 40.4317 59.8986 40.8614C60.3283 41.2911 60.5002 41.8067 60.5002 42.4083V42.4943C61.1017 41.6348 61.8752 41.1192 62.7346 40.6895Z" fill="#222222"/>
<path d="M73.4806 35.7902C72.965 36.3058 72.3634 36.5637 71.6759 36.5637C70.9883 36.5637 70.3868 36.3058 69.8711 35.7902C69.3555 35.2745 69.0977 34.673 69.0977 33.9854C69.0977 33.212 69.3555 32.6104 69.8711 32.1807C70.3868 31.665 70.9883 31.4072 71.6759 31.4072C72.4493 31.4072 73.0509 31.665 73.4806 32.1807C73.9963 32.6963 74.2541 33.2979 74.2541 33.9854C74.2541 34.673 73.9963 35.2745 73.4806 35.7902ZM70.129 40.8607C70.5587 40.431 71.0743 40.2591 71.6759 40.2591H73.8244V58.2207H69.5274V42.3217C69.4414 41.806 69.6993 41.2904 70.129 40.8607Z" fill="#222222"/>
<path d="M87.2309 40.1732C87.6606 40.1732 88.0903 40.345 88.434 40.6888C88.7778 41.0326 88.9497 41.4623 88.9497 41.892V43.1811H83.3635V50.9157C83.3635 52.2048 83.4495 53.1502 83.6213 53.5799C83.9651 54.2674 84.5667 54.6112 85.4261 54.6112C86.0277 54.6112 86.7152 54.4393 87.4027 54.0956L88.52 57.3613C87.1449 57.9629 85.7699 58.2207 84.3948 58.2207C82.9338 58.2207 81.6447 57.705 80.6994 56.7597C79.754 55.8143 79.1524 54.4393 79.0665 52.6346C79.0665 52.4627 78.9806 52.2048 78.9806 51.7751V43.0951H77.8633C77.4336 43.0951 77.0039 42.9233 76.6602 42.5795C76.3164 42.2357 76.1445 41.806 76.1445 41.3763V40.0872H78.9806V33.7276C78.9806 33.126 79.1525 32.6104 79.5822 32.1807C80.0119 31.751 80.5275 31.5791 81.1291 31.5791H83.3635V40.2591H87.2309V40.1732Z" fill="#222222"/>
<path d="M93.8439 62.8621C94.9611 61.8308 95.8205 60.5418 96.594 58.8229L89.8906 40.2598H92.8985C93.3282 40.2598 93.758 40.4316 94.1877 40.6895C94.5314 40.9473 94.7892 41.291 94.9611 41.8067L98.7425 53.4946L102.438 41.8067C102.61 41.377 102.868 41.0332 103.211 40.6895C103.555 40.4316 103.985 40.2598 104.501 40.2598H107.423L100.375 59.7683C99.43 62.1746 98.3128 64.0653 96.8518 65.4404C95.3908 66.8154 93.9298 67.6748 92.4688 68.1045L90.6641 65.0107C91.6094 64.495 92.7266 63.8075 93.8439 62.8621Z" fill="#222222"/>
</svg>
