<svg width="228" height="82" viewBox="0 0 228 82" fill="none" xmlns="http://www.w3.org/2000/svg">
<path d="M46.5843 59.3272L46.5842 59.3273C45.1094 60.159 43.0762 60.5963 41.0009 60.5965C38.9257 60.5966 36.8913 60.1598 35.4142 59.3272C35.4142 59.3272 35.4142 59.3272 35.4141 59.3272L6.98351 43.2991L6.98348 43.2991C5.75744 42.608 5.28541 41.8476 5.28541 41.318C5.28541 40.7869 5.75727 40.028 6.98399 39.3351C7.93074 38.8019 8.26432 37.6028 7.73046 36.6583C7.19578 35.712 5.99287 35.377 5.04947 35.9129C2.74426 37.2118 1.35 39.1159 1.35 41.318C1.35 43.5207 2.7449 45.4234 5.0505 46.7222L46.5843 59.3272ZM46.5843 59.3272L75.0134 43.2991L75.0137 43.2989C76.2418 42.6075 76.7146 41.847 76.7146 41.318C76.7146 40.7875 76.242 40.0285 75.0132 39.3352C74.0677 38.8021 73.7341 37.6028 74.268 36.6583L74.2691 36.6564C74.8071 35.7121 76.0037 35.379 76.9481 35.9124C79.2502 37.211 80.6485 39.1151 80.6485 41.318C80.6485 43.5213 79.2498 45.4238 76.9447 46.7223L48.5161 62.7485C48.516 62.7486 48.5159 62.7487 48.5158 62.7487C46.3792 63.9546 43.6726 64.5405 40.9969 64.5405C38.3224 64.5405 35.6159 63.953 33.4812 62.7487C33.4811 62.7487 33.481 62.7487 33.481 62.7486L5.05067 46.7223L46.5843 59.3272ZM76.9479 19.0955L76.9487 19.096C79.2493 20.3969 80.65 22.296 80.65 24.4997C80.65 26.7028 79.253 28.6039 76.948 29.9023C76.9479 29.9024 76.9479 29.9024 76.9478 29.9025L48.5173 45.9304L48.5168 45.9307C46.4657 47.0845 43.7941 47.7053 40.9985 47.7053C38.2079 47.7053 35.5359 47.0877 33.4827 45.9305L33.4827 45.9304L5.05201 29.9023L5.05187 29.9023C2.74992 28.6037 1.35308 26.7027 1.35308 24.4997C1.35308 22.2967 2.74837 20.3974 5.05143 19.0959L5.05206 19.0955L33.4827 3.07051L33.4829 3.07044C35.5466 1.90779 38.2975 1.34911 41.0036 1.34951C43.7096 1.34991 46.4582 1.90936 48.5174 3.07057L76.9479 19.0955ZM75.0134 26.4824L75.0135 26.4823C76.2435 25.7892 76.714 25.0306 76.7131 24.5008V24.4997C76.7131 23.9691 76.2388 23.2086 75.0114 22.5153L46.5812 6.48898L46.5811 6.48894C45.1777 5.69754 43.1409 5.21991 40.9969 5.21991C38.8543 5.21991 36.8192 5.69607 35.4144 6.48883L35.4142 6.48898L6.9845 22.515C6.98436 22.515 6.98422 22.5151 6.98408 22.5152C5.75722 23.2098 5.28541 23.9686 5.28541 24.4997C5.28541 25.0308 5.75723 25.7896 6.98387 26.4826C6.98391 26.4826 6.98395 26.4826 6.98399 26.4826L35.4142 42.5105L35.4145 42.5107C36.808 43.2975 38.8749 43.7173 40.9991 43.7169C43.1232 43.7165 45.1904 43.296 46.5843 42.5105C46.5843 42.5105 46.5843 42.5104 46.5844 42.5104L75.0134 26.4824ZM76.9484 63.2143L76.948 63.2145L48.5178 79.2408C46.3826 80.447 43.6758 81.0328 40.9985 81.0328C38.3253 81.0328 35.6189 80.4453 33.4827 79.2411L5.05204 63.2145C2.74806 61.9158 1.35308 60.0146 1.35308 57.8104C1.35308 55.605 2.74906 53.7043 5.04854 52.4042C5.99451 51.8647 7.1967 52.2066 7.7302 53.1487L7.73046 53.1491C8.26471 54.0943 7.93015 55.2923 6.98291 55.825L6.6643 55.2584L6.98399 55.8244C5.7575 56.5172 5.28541 57.2776 5.28541 57.8073C5.28541 58.3403 5.7579 59.1006 6.98348 59.7915L6.98353 59.7915L35.4142 75.8211L35.4143 75.8212C36.8913 76.6544 38.9256 77.0913 41.0008 77.0909C43.0761 77.0906 45.1094 76.653 46.5842 75.8212L46.5843 75.8211L75.0127 59.7949C76.2417 59.1001 76.7146 58.3396 76.7146 57.8104C76.7146 57.2799 76.242 56.5209 75.0134 55.8277C74.0678 55.2946 73.7341 54.0953 74.268 53.1507L74.2691 53.1487C74.8071 52.2045 76.0036 51.8713 76.9481 52.4047C79.2499 53.7031 80.65 55.6072 80.65 57.8104C80.65 60.0137 79.2528 61.913 76.9484 63.2143Z" fill="url(#paint0_linear_1510_759)" stroke="url(#paint1_linear_1510_759)" stroke-width="1.3"/>
<path d="M108.993 36.9074C107.102 38.0246 105.04 38.6262 102.805 38.6262C100.485 38.6262 98.3362 38.0246 96.3596 36.8215C94.383 35.6183 92.836 33.8995 91.7188 31.8369C90.6016 29.6884 90 27.454 90 24.9617C90 22.4694 90.6016 20.149 91.7188 18.0864C92.836 15.9379 94.383 14.305 96.3596 13.1019C98.3362 11.8987 100.485 11.2971 102.805 11.2971C104.782 11.2971 106.672 11.7268 108.391 12.6722C110.11 13.6175 111.571 14.9066 112.774 16.4536L109.251 18.8599C108.477 17.7427 107.532 16.9692 106.415 16.2817C105.297 15.6801 104.094 15.3363 102.805 15.3363C101.258 15.3363 99.8832 15.766 98.5941 16.6254C97.305 17.4848 96.2737 18.688 95.5002 20.149C94.7267 21.61 94.383 23.2429 94.383 24.9617C94.383 26.6805 94.7267 28.3134 95.5002 29.7744C96.2737 31.2353 97.305 32.4385 98.5941 33.2979C99.8832 34.1573 101.258 34.587 102.805 34.587C104.266 34.587 105.641 34.1573 106.93 33.2979C108.219 32.4385 109.251 31.3213 109.938 29.9462L113.462 32.3526C112.43 34.2433 110.884 35.7902 108.993 36.9074Z" fill="#222222"/>
<path d="M128.844 36.0482C127.469 37.6811 125.75 38.4545 123.774 38.4545C122.141 38.4545 120.68 38.0248 119.391 37.2514C118.102 36.4779 117.07 35.3607 116.383 33.9856C115.609 32.6106 115.266 30.9777 115.266 29.2589C115.266 27.5401 115.609 25.9072 116.383 24.5321C117.156 23.1571 118.102 22.0399 119.391 21.2664C120.68 20.4929 122.141 20.0632 123.774 20.0632C125.75 20.0632 127.469 20.8367 128.844 22.4696V22.3836C128.844 21.782 129.016 21.2664 129.446 20.8367C129.876 20.407 130.391 20.2351 130.993 20.2351H133.141V38.1967H128.844V36.0482ZM127.469 25.1337C126.524 24.1024 125.493 23.5009 124.203 23.5009C122.914 23.5009 121.797 24.0165 120.852 25.1337C119.992 26.165 119.477 27.5401 119.477 29.2589C119.477 30.9777 119.906 32.3527 120.852 33.384C121.711 34.4153 122.828 35.0169 124.203 35.0169C125.493 35.0169 126.61 34.5013 127.469 33.384C128.415 32.2668 128.844 30.8917 128.844 29.2589C128.844 27.5401 128.329 26.165 127.469 25.1337Z" fill="#222222"/>
<path d="M136.15 25.4771C136.15 24.6177 136.408 23.7583 136.838 22.8989C137.268 22.0395 137.869 21.4379 138.729 20.9223C139.588 20.4066 140.533 20.1488 141.565 20.1488C143.198 20.0629 144.487 20.2348 145.432 20.4926C146.377 20.7504 147.581 21.2661 148.87 21.9536L147.151 25.1334C146.463 24.7037 145.69 24.274 144.83 23.9302C143.971 23.5865 143.112 23.5005 142.338 23.5005C142.166 23.5005 141.908 23.5005 141.565 23.5864C141.135 23.6724 140.791 23.9302 140.619 24.188C140.447 24.4459 140.276 24.7896 140.276 25.2193C140.276 25.5631 140.362 25.9068 140.619 26.2506C140.877 26.5084 141.479 26.7663 142.338 27.11C142.596 27.196 143.283 27.4538 144.401 27.7975C145.518 28.2272 146.549 28.6569 147.237 29.2585C148.01 29.8601 148.526 30.4617 148.784 31.2352C149.042 31.8368 149.127 32.5243 149.127 33.0399C149.127 33.9853 148.87 34.9306 148.354 35.7041C147.838 36.5635 147.065 37.251 146.034 37.6807C145.002 38.1964 143.713 38.4542 142.252 38.4542C140.018 38.4542 137.611 37.5948 135.033 35.9619L137.01 33.0399C138.041 33.6415 138.901 34.1572 139.76 34.5009C140.619 34.8447 141.393 35.0165 142.252 35.0165C142.51 35.0165 142.768 35.0166 142.94 34.9306C143.541 34.8447 144.057 34.6728 144.487 34.329C144.916 33.9853 145.002 33.4696 144.916 32.7821C144.83 32.1805 144.143 31.6649 143.112 31.3211L141.479 30.7195C140.19 30.2898 139.158 29.8601 138.385 29.4304C137.611 29.0007 137.01 28.3991 136.666 27.5397C136.322 26.8522 136.15 26.1647 136.15 25.4771Z" fill="#222222"/>
<path d="M156.174 25.1337C155.315 26.165 154.799 27.5401 154.799 29.2589C154.799 30.9777 155.229 32.3527 156.174 33.384C157.033 34.4153 158.151 35.0169 159.526 35.0169C160.385 35.0169 161.245 34.845 161.932 34.4153C162.706 33.9856 163.307 33.384 163.823 32.5246L166.917 34.5872C166.057 35.7904 165.026 36.7357 163.737 37.4232C162.448 38.1108 160.987 38.4545 159.526 38.4545C157.893 38.4545 156.346 38.0248 154.971 37.2514C153.596 36.4779 152.479 35.3607 151.705 33.8997C150.932 32.5246 150.502 30.8918 150.502 29.1729V29.087C150.502 27.3682 150.932 25.8213 151.705 24.4462C152.479 23.0712 153.596 21.9539 154.971 21.1805C156.346 20.407 157.893 19.9773 159.526 19.9773C161.073 19.9773 162.448 20.3211 163.737 21.0086C165.026 21.6961 166.057 22.6415 166.917 23.8446L163.823 25.9072C163.307 25.0478 162.62 24.4462 161.932 24.0165C161.159 23.5868 160.385 23.4149 159.526 23.4149C158.151 23.5009 157.033 24.0165 156.174 25.1337Z" fill="#222222"/>
<path d="M181.526 36.0482C180.151 37.6811 178.432 38.4545 176.455 38.4545C174.823 38.4545 173.362 38.0248 172.072 37.2514C170.783 36.4779 169.752 35.3607 169.065 33.9856C168.291 32.6106 167.947 30.9777 167.947 29.2589C167.947 27.5401 168.291 25.9072 169.065 24.5321C169.838 23.1571 170.783 22.0399 172.072 21.2664C173.362 20.4929 174.823 20.0632 176.455 20.0632C178.432 20.0632 180.151 20.8367 181.526 22.4696V22.3836C181.526 21.782 181.698 21.2664 182.127 20.8367C182.557 20.407 183.073 20.2351 183.674 20.2351H185.823V38.1967H181.526V36.0482ZM180.151 25.1337C179.205 24.1024 178.174 23.5009 176.885 23.5009C175.596 23.5009 174.479 24.0165 173.533 25.1337C172.674 26.165 172.158 27.5401 172.158 29.2589C172.158 30.9777 172.588 32.3527 173.533 33.384C174.393 34.4153 175.51 35.0169 176.885 35.0169C178.174 35.0169 179.291 34.5013 180.151 33.384C181.096 32.2668 181.526 30.8917 181.526 29.2589C181.526 27.5401 181.096 26.165 180.151 25.1337Z" fill="#222222"/>
<path d="M202.754 36.048C201.379 37.6809 199.661 38.4543 197.684 38.4543C196.051 38.4543 194.59 38.0246 193.301 37.2512C192.012 36.4777 190.981 35.3605 190.293 33.9854C189.52 32.6104 189.176 30.9775 189.176 29.2587C189.176 27.5399 189.52 25.907 190.293 24.532C191.066 23.1569 192.012 22.0397 193.301 21.2662C194.59 20.4928 196.051 20.0631 197.684 20.0631C199.661 20.0631 201.379 20.8365 202.754 22.4694V13.7894C202.754 13.1878 202.926 12.6722 203.356 12.2425C203.786 11.8127 204.301 11.6409 204.903 11.6409H207.051V38.1965H202.754V36.048ZM201.379 25.1335C200.434 24.1023 199.403 23.5007 198.114 23.5007C196.824 23.5007 195.707 24.0163 194.762 25.1335C193.903 26.1648 193.387 27.5399 193.387 29.2587C193.387 30.9775 193.817 32.3526 194.762 33.3838C195.621 34.4151 196.739 35.0167 198.114 35.0167C199.403 35.0167 200.52 34.5011 201.379 33.3838C202.325 32.2666 202.754 30.8916 202.754 29.2587C202.754 27.5399 202.325 26.1648 201.379 25.1335Z" fill="#222222"/>
<path d="M227.075 30.6339H214.785C215.043 31.923 215.559 33.0403 216.418 33.8137C217.278 34.5872 218.223 35.0169 219.34 35.0169C220.2 35.0169 221.059 34.845 221.746 34.4153C222.52 33.9856 223.122 33.384 223.637 32.5246L226.645 34.5872C225.872 35.7904 224.84 36.7357 223.551 37.4232C222.262 38.1108 220.801 38.4545 219.34 38.4545C217.707 38.4545 216.16 38.0248 214.785 37.2514C213.41 36.4779 212.293 35.3607 211.52 33.9856C210.746 32.6106 210.316 30.9777 210.316 29.2589C210.316 27.5401 210.746 25.9931 211.52 24.5321C212.293 23.1571 213.324 22.0399 214.699 21.2664C215.988 20.4929 217.535 20.0632 219.168 20.0632C220.801 20.0632 222.176 20.4929 223.465 21.2664C224.668 22.0399 225.614 23.1571 226.301 24.5321C226.989 25.9072 227.247 27.4541 227.247 29.2589C227.161 29.8605 227.161 30.2902 227.075 30.6339ZM221.832 24.704C221.145 23.9306 220.2 23.5009 219.168 23.5009C218.051 23.5009 217.192 23.9306 216.418 24.704C215.645 25.4775 215.129 26.5088 214.871 27.7979H223.122C222.95 26.5088 222.52 25.4775 221.832 24.704Z" fill="#222222"/>
<path d="M108.993 67.8459C107.102 68.9631 105.04 69.5647 102.805 69.5647C100.485 69.5647 98.3362 68.9631 96.3596 67.7599C94.383 66.5568 92.836 64.838 91.7188 62.7754C90.6016 60.6269 90 58.3924 90 55.9001C90 53.4079 90.6016 51.0875 91.7188 49.0249C92.836 46.8764 94.383 45.2435 96.3596 44.0403C98.3362 42.8372 100.485 42.2356 102.805 42.2356C104.782 42.2356 106.672 42.6653 108.391 43.6106C110.11 44.556 111.571 45.8451 112.774 47.392L109.251 49.7984C108.477 48.6811 107.532 47.9077 106.415 47.2201C105.297 46.6186 104.094 46.2748 102.805 46.2748C101.258 46.2748 99.8832 46.7045 98.5941 47.5639C97.305 48.4233 96.2737 49.6265 95.5002 51.0875C94.7267 52.5485 94.383 54.1813 94.383 55.9001C94.383 57.619 94.7267 59.2518 95.5002 60.7128C96.2737 62.1738 97.305 63.377 98.5941 64.2364C99.8832 65.0958 101.258 65.5255 102.805 65.5255C104.266 65.5255 105.641 65.0958 106.93 64.2364C108.219 63.377 109.251 62.2597 109.938 60.8847L113.462 63.291C112.43 65.1817 110.884 66.7287 108.993 67.8459Z" fill="#222222"/>
<path d="M116.641 69.135V44.7279C116.641 44.1263 116.813 43.6106 117.242 43.1809C117.672 42.7512 118.188 42.5793 118.789 42.5793H121.024V69.135H116.641Z" fill="#222222"/>
<path d="M137.524 66.9867C136.149 68.6195 134.43 69.393 132.453 69.393C130.821 69.393 129.36 68.9633 128.07 68.1898C126.781 67.4164 125.75 66.2991 125.063 64.9241C124.289 63.549 123.945 61.9162 123.945 60.1974C123.945 58.4786 124.289 56.8457 125.063 55.4706C125.836 54.0956 126.781 52.9784 128.07 52.2049C129.36 51.4314 130.821 51.0017 132.453 51.0017C134.43 51.0017 136.149 51.7752 137.524 53.4081V53.3221C137.524 52.7205 137.696 52.2049 138.126 51.7752C138.555 51.3455 139.071 51.1736 139.672 51.1736H141.821V69.1352H137.524V66.9867ZM136.149 56.0722C135.204 55.0409 134.172 54.4393 132.883 54.4393C131.594 54.4393 130.477 54.955 129.531 56.0722C128.672 57.1035 128.156 58.4786 128.156 60.1974C128.156 61.9162 128.586 63.2912 129.531 64.3225C130.391 65.3538 131.508 65.9554 132.883 65.9554C134.172 65.9554 135.289 65.4397 136.149 64.3225C137.094 63.2053 137.524 61.8302 137.524 60.1974C137.524 58.5645 137.094 57.1035 136.149 56.0722Z" fill="#222222"/>
<path d="M152.737 51.6892C153.596 51.2595 154.627 51.0017 155.744 51.0017H156.604V55.6425C156.346 55.3847 156.002 55.2128 155.573 55.1269C155.143 55.0409 154.713 54.955 154.198 54.955C153.166 54.955 152.307 55.3847 151.619 56.2441C150.932 57.1035 150.588 58.3067 150.588 59.9396V69.2211H146.205V51.2595H148.354C148.955 51.2595 149.471 51.4314 149.901 51.8611C150.33 52.2908 150.502 52.8065 150.502 53.4081V53.494C151.104 52.6346 151.877 52.119 152.737 51.6892Z" fill="#222222"/>
<path d="M163.481 46.7904C162.965 47.3061 162.363 47.5639 161.676 47.5639C160.988 47.5639 160.387 47.3061 159.871 46.7904C159.355 46.2748 159.098 45.6732 159.098 44.9857C159.098 44.2122 159.355 43.6106 159.871 43.1809C160.387 42.6653 160.988 42.4075 161.676 42.4075C162.449 42.4075 163.051 42.6653 163.481 43.1809C163.996 43.6966 164.254 44.2982 164.254 44.9857C164.254 45.6732 163.996 46.2748 163.481 46.7904ZM160.129 51.8609C160.559 51.4312 161.074 51.2594 161.676 51.2594H163.824V69.2209H159.527V53.3219C159.441 52.8063 159.699 52.2906 160.129 51.8609Z" fill="#222222"/>
<path d="M177.231 51.1734C177.661 51.1734 178.09 51.3453 178.434 51.6891C178.778 52.0328 178.95 52.4625 178.95 52.8922V54.1813H173.364V61.916C173.364 63.2051 173.449 64.1504 173.621 64.5801C173.965 65.2677 174.567 65.6114 175.426 65.6114C176.028 65.6114 176.715 65.4396 177.403 65.0958L178.52 68.3615C177.145 68.9631 175.77 69.2209 174.395 69.2209C172.934 69.2209 171.645 68.7053 170.699 67.7599C169.754 66.8146 169.152 65.4395 169.067 63.6348C169.067 63.4629 168.981 63.2051 168.981 62.7754V54.0954H167.863C167.434 54.0954 167.004 53.9235 166.66 53.5797C166.316 53.236 166.145 52.8063 166.145 52.3766V51.0875H168.981V44.7279C168.981 44.1263 169.152 43.6106 169.582 43.1809C170.012 42.7512 170.527 42.5793 171.129 42.5793H173.364V51.2594H177.231V51.1734Z" fill="#222222"/>
<path d="M183.846 73.8619C184.963 72.8306 185.822 71.5415 186.596 69.8227L179.893 51.2595H182.9C183.33 51.2595 183.76 51.4314 184.19 51.6892C184.533 51.947 184.791 52.2908 184.963 52.8064L188.744 64.4944L192.44 52.8064C192.612 52.3767 192.87 52.033 193.213 51.6892C193.557 51.4314 193.987 51.2595 194.502 51.2595H197.424L190.377 70.768C189.432 73.1744 188.315 75.0651 186.854 76.4401C185.393 77.8152 183.932 78.6746 182.471 79.1043L180.666 76.0104C181.611 75.4948 182.729 74.8072 183.846 73.8619Z" fill="#222222"/>
<defs>
<linearGradient id="paint0_linear_1510_759" x1="2" y1="40.8528" x2="79.9951" y2="40.8528" gradientUnits="userSpaceOnUse">
<stop stop-color="#6245F1"/>
<stop offset="0.1724" stop-color="#615FEC"/>
<stop offset="0.5426" stop-color="#5EA3DF"/>
<stop offset="1" stop-color="#5AFFCE"/>
</linearGradient>
<linearGradient id="paint1_linear_1510_759" x1="2" y1="40.8528" x2="79.9951" y2="40.8528" gradientUnits="userSpaceOnUse">
<stop stop-color="#6245F1"/>
<stop offset="0.1724" stop-color="#615FEC"/>
<stop offset="0.5426" stop-color="#5EA3DF"/>
<stop offset="1" stop-color="#5AFFCE"/>
</linearGradient>
</defs>
</svg>
