<svg width="30" height="30" viewBox="0 0 30 30" fill="none" xmlns="http://www.w3.org/2000/svg">
<path d="M29.625 20.865C29.5425 20.6242 29.4001 20.4084 29.2111 20.2378C29.0222 20.0672 28.793 19.9475 28.545 19.89L19.545 17.835C19.3007 17.7796 19.0464 17.7863 18.8054 17.8544C18.5643 17.9225 18.3442 18.0499 18.165 18.225C17.955 18.42 17.94 18.435 16.965 20.295C13.7298 18.8042 11.1375 16.2013 9.66 12.96C11.565 12 11.58 12 11.775 11.775C11.9501 11.5958 12.0775 11.3757 12.1456 11.1346C12.2137 10.8936 12.2204 10.6393 12.165 10.395L10.11 1.5C10.0525 1.25204 9.93279 1.02281 9.76222 0.833867C9.59165 0.644928 9.3758 0.502503 9.135 0.42C8.7847 0.294884 8.42297 0.20445 8.055 0.15C7.67588 0.0620925 7.289 0.011849 6.9 0C5.07001 0 3.31496 0.726962 2.02096 2.02096C0.726962 3.31496 0 5.07001 0 6.9C0.00793788 13.0241 2.44423 18.895 6.7746 23.2254C11.105 27.5558 16.9759 29.9921 23.1 30C24.0061 30 24.9034 29.8215 25.7405 29.4748C26.5777 29.128 27.3383 28.6198 27.979 27.979C28.6198 27.3383 29.128 26.5777 29.4748 25.7405C29.8215 24.9034 30 24.0061 30 23.1C30.0005 22.7182 29.9704 22.337 29.91 21.96C29.847 21.5874 29.7516 21.221 29.625 20.865Z" fill="#0C2239"/>
</svg>
