<svg width="14" height="12" viewBox="0 0 14 12" fill="none" xmlns="http://www.w3.org/2000/svg">
<path d="M3.52918 3.72656V11.4688H0.650138V3.72656H3.52918ZM3.71239 1.33594C3.71821 1.71615 3.57135 2.03385 3.27181 2.28906C2.97227 2.54427 2.57822 2.67188 2.08966 2.67188H2.07221C1.59528 2.67188 1.21141 2.54427 0.920593 2.28906C0.629781 2.03385 0.484375 1.71615 0.484375 1.33594C0.484375 0.950521 0.634143 0.631511 0.93368 0.378906C1.23322 0.126302 1.62436 0 2.10711 0C2.58986 0 2.97664 0.126302 3.26745 0.378906C3.55826 0.631511 3.70658 0.950521 3.71239 1.33594ZM13.885 7.03125V11.4688H11.0147V7.32812C11.0147 6.78125 10.8969 6.35286 10.6614 6.04297C10.4258 5.73307 10.0579 5.57812 9.55772 5.57812C9.1913 5.57812 8.88449 5.66797 8.6373 5.84766C8.39011 6.02734 8.20544 6.25 8.0833 6.51562C8.01932 6.67188 7.98733 6.88281 7.98733 7.14844V11.4688H5.11701C5.12865 9.39062 5.13446 7.70573 5.13446 6.41406C5.13446 5.1224 5.13156 4.35156 5.12574 4.10156L5.11701 3.72656H7.98733V4.85156H7.96988C8.08621 4.6849 8.20544 4.53906 8.32758 4.41406C8.44972 4.28906 8.61403 4.15365 8.82051 4.00781C9.02699 3.86198 9.27999 3.7487 9.57953 3.66797C9.87907 3.58724 10.212 3.54688 10.5785 3.54688C11.573 3.54688 12.3728 3.84245 12.9777 4.43359C13.5826 5.02474 13.885 5.89062 13.885 7.03125Z" fill="#00D2AD"/>
</svg>
