<svg width="266" height="268" viewBox="0 0 266 268" fill="none" xmlns="http://www.w3.org/2000/svg">
<path d="M254.503 60.3889C261.911 64.5887 266 70.4547 266 76.9303C266 83.406 261.921 89.2773 254.503 93.4665L157.547 148.268C150.949 151.989 142.229 154.05 132.995 154.05C123.776 154.05 115.057 152 108.453 148.268L11.4967 93.4665C4.08948 89.2773 0.0104993 83.406 0.0104993 76.9303C0.0104993 70.4547 4.08423 64.5887 11.4967 60.3889L108.453 5.5979C121.676 -1.87122 144.355 -1.86072 157.547 5.5979L254.503 60.3889ZM250.083 85.6452C254.493 83.1537 257.013 79.979 257.007 76.9303C257.007 73.8817 254.477 70.7017 250.078 68.2102L153.122 13.4139C147.925 10.4757 140.58 8.78842 132.989 8.78842C125.404 8.78842 118.065 10.4704 112.862 13.4139L15.9065 68.2102C11.5072 70.707 8.98741 73.8817 8.98741 76.9303C8.98741 79.979 11.5072 83.1537 15.9065 85.6452L112.862 140.447C123.262 146.334 142.733 146.323 153.132 140.447L250.083 85.6452ZM254.503 117.887C261.911 122.076 265.995 127.958 265.995 134.434C265.995 140.909 261.911 146.786 254.493 150.975L157.542 205.771C150.66 209.666 141.825 211.611 132.989 211.611C124.16 211.611 115.324 209.661 108.447 205.771L11.4915 150.975C4.07373 146.786 0 140.909 0 134.434C0 127.958 4.07373 122.076 11.4915 117.887C13.6386 116.662 16.3894 117.424 17.6126 119.595C18.8305 121.756 18.0693 124.499 15.9065 125.719C11.5072 128.21 8.98741 131.385 8.98741 134.434C8.98741 137.477 11.5072 140.657 15.9065 143.143L112.862 197.945C123.782 204.116 142.229 204.11 153.132 197.945L250.083 143.143C254.488 140.657 257.013 137.477 257.013 134.434C257.013 131.385 254.488 128.21 250.083 125.719C247.925 124.499 247.164 121.756 248.382 119.595C249.616 117.424 252.351 116.668 254.503 117.887ZM254.503 174.276C261.911 178.465 266 184.347 266 190.823C266 197.298 261.921 203.164 254.503 207.364L157.547 262.16C150.67 266.055 141.835 268 132.995 268C124.17 268 115.335 266.05 108.453 262.16L11.4967 207.364C4.08423 203.175 0.0104993 197.304 0.0104993 190.823C0.0104993 184.336 4.08948 178.465 11.4915 174.271C13.6386 173.041 16.3894 173.813 17.6126 175.979C18.8305 178.139 18.0693 180.878 15.9065 182.097C11.5072 184.589 8.98741 187.769 8.98741 190.812C8.98741 193.866 11.5072 197.046 15.9065 199.532L112.862 254.339C123.782 260.515 142.229 260.505 153.132 254.339L250.083 199.543C254.488 197.046 257.013 193.866 257.013 190.823C257.013 187.774 254.488 184.599 250.083 182.108C247.925 180.888 247.164 178.145 248.382 175.984C249.616 173.813 252.351 173.057 254.503 174.276Z" fill="url(#paint0_linear_1267_4202)"/>
<path d="M254.503 60.3889C261.911 64.5887 266 70.4547 266 76.9303C266 83.406 261.921 89.2773 254.503 93.4665L157.547 148.268C150.949 151.989 142.229 154.05 132.995 154.05C123.776 154.05 115.057 152 108.453 148.268L11.4967 93.4665C4.08948 89.2773 0.0104993 83.406 0.0104993 76.9303C0.0104993 70.4547 4.08423 64.5887 11.4967 60.3889L108.453 5.5979C121.676 -1.87122 144.355 -1.86072 157.547 5.5979L254.503 60.3889ZM250.083 85.6452C254.493 83.1537 257.013 79.979 257.007 76.9303C257.007 73.8817 254.477 70.7017 250.078 68.2102L153.122 13.4139C147.925 10.4757 140.58 8.78842 132.989 8.78842C125.404 8.78842 118.065 10.4704 112.862 13.4139L15.9065 68.2102C11.5072 70.707 8.98741 73.8817 8.98741 76.9303C8.98741 79.979 11.5072 83.1537 15.9065 85.6452L112.862 140.447C123.262 146.334 142.733 146.323 153.132 140.447L250.083 85.6452ZM254.503 117.887C261.911 122.076 265.995 127.958 265.995 134.434C265.995 140.909 261.911 146.786 254.493 150.975L157.542 205.771C150.66 209.666 141.825 211.611 132.989 211.611C124.16 211.611 115.324 209.661 108.447 205.771L11.4915 150.975C4.07373 146.786 0 140.909 0 134.434C0 127.958 4.07373 122.076 11.4915 117.887C13.6386 116.662 16.3894 117.424 17.6126 119.595C18.8305 121.756 18.0693 124.499 15.9065 125.719C11.5072 128.21 8.98741 131.385 8.98741 134.434C8.98741 137.477 11.5072 140.657 15.9065 143.143L112.862 197.945C123.782 204.116 142.229 204.11 153.132 197.945L250.083 143.143C254.488 140.657 257.013 137.477 257.013 134.434C257.013 131.385 254.488 128.21 250.083 125.719C247.925 124.499 247.164 121.756 248.382 119.595C249.616 117.424 252.351 116.668 254.503 117.887ZM254.503 174.276C261.911 178.465 266 184.347 266 190.823C266 197.298 261.921 203.164 254.503 207.364L157.547 262.16C150.67 266.055 141.835 268 132.995 268C124.17 268 115.335 266.05 108.453 262.16L11.4967 207.364C4.08423 203.175 0.0104993 197.304 0.0104993 190.823C0.0104993 184.336 4.08948 178.465 11.4915 174.271C13.6386 173.041 16.3894 173.813 17.6126 175.979C18.8305 178.139 18.0693 180.878 15.9065 182.097C11.5072 184.589 8.98741 187.769 8.98741 190.812C8.98741 193.866 11.5072 197.046 15.9065 199.532L112.862 254.339C123.782 260.515 142.229 260.505 153.132 254.339L250.083 199.543C254.488 197.046 257.013 193.866 257.013 190.823C257.013 187.774 254.488 184.599 250.083 182.108C247.925 180.888 247.164 178.145 248.382 175.984C249.616 173.813 252.351 173.057 254.503 174.276Z" fill="url(#paint1_linear_1267_4202)"/>
<defs>
<linearGradient id="paint0_linear_1267_4202" x1="133" y1="268" x2="133" y2="0" gradientUnits="userSpaceOnUse">
<stop stop-color="#C7C7C7"/>
</linearGradient>
<linearGradient id="paint1_linear_1267_4202" x1="0" y1="132.843" x2="265.983" y2="132.843" gradientUnits="userSpaceOnUse">
<stop stop-color="#6245F1"/>
<stop offset="0.1724" stop-color="#615FEC"/>
<stop offset="0.5426" stop-color="#5EA3DF"/>
<stop offset="1" stop-color="#5AFFCE"/>
</linearGradient>
</defs>
</svg>
